<?xml version="1.0" encoding="iso-8859-1"?>
<!-- Generator: Adobe Illustrator 19.0.0, SVG Export Plug-In . SVG Version: 6.00 Build 0)  -->
<svg version="1.1" id="Layer_1" xmlns="http://www.w3.org/2000/svg" xmlns:xlink="http://www.w3.org/1999/xlink" x="0px" y="0px"
	 viewBox="0 0 482.962 482.962" style="enable-background:new 0 0 482.962 482.962;" xml:space="preserve">
<g>
	<path d="M310.022,179.826L410.81,84.099V0H72.152v84.099l100.789,95.727l15.293-23.615l11.33,26.259L161.087,430l80.394,52.963
		L321.875,430l-38.476-247.53l11.33-26.259L310.022,179.826z M380.81,71.218l-65.249,61.972l-26.395-40.76l91.643-51.736V71.218z
		 M338.728,30l-74.757,42.203h-44.979L144.235,30H338.728z M167.401,133.189l-65.249-61.972V40.693l91.643,51.736L167.401,133.189z
		 M241.481,447.037l-47.789-31.482L227.899,195.5h27.165l34.206,220.055L241.481,447.037z M258.048,165.5h-33.133l-17.073-39.569
		l15.365-23.728h36.548l15.365,23.728L258.048,165.5z"/>
</g>
<g>
</g>
<g>
</g>
<g>
</g>
<g>
</g>
<g>
</g>
<g>
</g>
<g>
</g>
<g>
</g>
<g>
</g>
<g>
</g>
<g>
</g>
<g>
</g>
<g>
</g>
<g>
</g>
<g>
</g>
</svg>
